<?xml version="1.0" encoding="UTF-8"?>
<svg width="200" height="200" viewBox="0 0 200 200" fill="none" xmlns="http://www.w3.org/2000/svg">
  <circle cx="100" cy="100" r="95" fill="#3498DB" fill-opacity="0.1" stroke="#3498DB" stroke-width="2"/>
  <path d="M100 40C66.8629 40 40 66.8629 40 100C40 133.137 66.8629 160 100 160C133.137 160 160 133.137 160 100C160 66.8629 133.137 40 100 40Z" fill="#3498DB" fill-opacity="0.2"/>
  <path d="M100 60C77.9086 60 60 77.9086 60 100C60 122.091 77.9086 140 100 140C122.091 140 140 122.091 140 100C140 77.9086 122.091 60 100 60Z" fill="#3498DB" fill-opacity="0.4"/>
  <path d="M100 80C88.9543 80 80 88.9543 80 100C80 111.046 88.9543 120 100 120C111.046 120 120 111.046 120 100C120 88.9543 111.046 80 100 80Z" fill="#3498DB"/>
  
  <!-- 医学符号 -->
  <path d="M95 140V160M105 140V160M80 145H120" stroke="#2C3E50" stroke-width="3" stroke-linecap="round"/>
  <path d="M70 100H130M100 70V130" stroke="#FFFFFF" stroke-width="4" stroke-linecap="round"/>
</svg>
