<?xml version="1.0" encoding="UTF-8"?>
<svg width="120" height="120" viewBox="0 0 120 120" fill="none" xmlns="http://www.w3.org/2000/svg">
  <circle cx="60" cy="60" r="56" fill="#3498DB" fill-opacity="0.1" stroke="#3498DB" stroke-width="2"/>
  <path d="M60 30C43.4315 30 30 43.4315 30 60C30 76.5685 43.4315 90 60 90C76.5685 90 90 76.5685 90 60C90 43.4315 76.5685 30 60 30Z" fill="#3498DB" fill-opacity="0.2"/>
  <path d="M60 40C48.9543 40 40 48.9543 40 60C40 71.0457 48.9543 80 60 80C71.0457 80 80 71.0457 80 60C80 48.9543 71.0457 40 60 40Z" fill="#3498DB" fill-opacity="0.4"/>
  <path d="M60 50C54.4772 50 50 54.4772 50 60C50 65.5228 54.4772 70 60 70C65.5228 70 70 65.5228 70 60C70 54.4772 65.5228 50 60 50Z" fill="#3498DB"/>
  <path d="M30 60H40M80 60H90M60 30V40M60 80V90" stroke="#3498DB" stroke-width="2" stroke-linecap="round"/>
  <path d="M39.3934 39.3934L46.4645 46.4645M73.5355 73.5355L80.6066 80.6066M80.6066 39.3934L73.5355 46.4645M46.4645 73.5355L39.3934 80.6066" stroke="#3498DB" stroke-width="2" stroke-linecap="round"/>
</svg>
