<?xml version="1.0" encoding="UTF-8"?>
<svg width="120" height="120" viewBox="0 0 120 120" fill="none" xmlns="http://www.w3.org/2000/svg">
  <circle cx="60" cy="60" r="58" fill="#F5F7FA" stroke="#E1E4E8" stroke-width="2"/>
  <circle cx="60" cy="60" r="50" fill="#F5F7FA"/>
  <path d="M60 30C43.4315 30 30 43.4315 30 60C30 76.5685 43.4315 90 60 90C76.5685 90 90 76.5685 90 60C90 43.4315 76.5685 30 60 30Z" fill="#E1E4E8"/>
  <circle cx="60" cy="60" r="20" fill="#666666"/>
  <path d="M50 60C50 54.4772 54.4772 50 60 50C65.5228 50 70 54.4772 70 60C70 65.5228 65.5228 70 60 70C54.4772 70 50 65.5228 50 60Z" fill="#F5F7FA"/>
</svg>
